<svg width="370" height="282" viewBox="0 0 370 282" fill="none" xmlns="http://www.w3.org/2000/svg">
<path d="M89.1044 42.133C93.937 41.6483 98.7021 41.5851 103.376 41.9129C120.333 43.1026 137.23 36.548 149.344 22.4857C161.325 8.58027 177.75 0 195.879 0C221.103 0 243.03 16.6078 254.274 41.0676C257.615 48.3317 265.266 51.3057 271.385 47.2896C281.879 40.4048 294.112 36.7774 307.117 37.5783C341.383 39.6835 368.988 73.1076 369.972 113.611C371.051 157.99 340.907 194.366 303.569 194.366H303.452C297.259 194.352 291.931 199.366 290.745 206.544C283.63 249.546 251.551 282 213.054 282C199.547 282 186.836 278.003 175.714 270.959C160.942 261.603 143.639 260.332 127.701 266.46C118.207 270.113 108.072 272.087 97.5441 272.087C41.3579 272.087 -3.73344 215.988 0.244447 148.632C3.56398 92.4763 41.6057 46.8985 89.1044 42.133Z" fill="black"/>
<path d="M89.1044 42.133C93.937 41.6483 98.7021 41.5851 103.376 41.9129C120.333 43.1026 137.23 36.548 149.344 22.4857C161.325 8.58027 177.75 0 195.879 0C221.103 0 243.03 16.6078 254.274 41.0676C257.615 48.3317 265.266 51.3057 271.385 47.2896C281.879 40.4048 294.112 36.7774 307.117 37.5783C341.383 39.6835 368.988 73.1076 369.972 113.611C371.051 157.99 340.907 194.366 303.569 194.366H303.452C297.259 194.352 291.931 199.366 290.745 206.544C283.63 249.546 251.551 282 213.054 282C199.547 282 186.836 278.003 175.714 270.959C160.942 261.603 143.639 260.332 127.701 266.46C118.207 270.113 108.072 272.087 97.5441 272.087C41.3579 272.087 -3.73344 215.988 0.244447 148.632C3.56398 92.4763 41.6057 46.8985 89.1044 42.133Z" stroke="white"/>
</svg>
