<?xml version="1.0" encoding="utf-8"?>
<!-- Generator: Adobe Illustrator 26.3.1, SVG Export Plug-In . SVG Version: 6.00 Build 0)  -->
<svg width="210" height="55.38" version="1.1" id="Ebene_1" xmlns="http://www.w3.org/2000/svg" xmlns:xlink="http://www.w3.org/1999/xlink" x="0px" y="0px"
	 viewBox="0 0 364 96" style="enable-background:new 0 0 364 96;" xml:space="preserve">
<style type="text/css">
	.st0{fill:#9C29B2;}
	.st1{fill:#88C90D;}
	.st2{fill-rule:evenodd;clip-rule:evenodd;fill:#88C90D;}
</style>
<g>
	<defs>
		<rect id="SVGID_1_" width="364" height="96"/>
	</defs>
	<clipPath id="SVGID_00000070092819917383041740000005855610961502245811_">
		<use xlink:href="#SVGID_1_"  style="overflow:visible;"/>
	</clipPath>
</g>
<g>
	<path class="st0" d="M117.1,53.5h-11.7V22.1c0.5-0.1,1.3-0.3,2.3-0.4c1-0.2,2.1-0.3,3-0.3c2.3,0,3.9,0.4,4.8,1.3
		c1,0.8,1.5,2.4,1.5,4.8V53.5z M105.5,37.4h11.7v35.3c-0.5,0.2-1.2,0.3-2.2,0.5c-1,0.2-2.1,0.2-3.1,0.2c-2.3,0-3.9-0.5-4.9-1.4
		c-0.9-0.9-1.4-2.5-1.4-4.6V37.4z M125.2,50.4l-14.9,0.8l24.1-29.4c2.9,0,5,0.6,6.4,1.9c1.3,1.3,2,2.7,2,4.4c0,1.3-0.3,2.5-0.9,3.6
		c-0.6,1.1-1.5,2.4-2.9,3.7L125.2,50.4z M111.8,45.9l13-1.7c4.3,4.9,8.1,9.4,11.5,13.3c3.4,3.9,6.1,7,8.2,9.3c0,2.1-0.6,3.8-1.9,5
		c-1.3,1.2-2.8,1.8-4.5,1.8c-1.8,0-3.4-0.5-4.5-1.5c-1.2-1-2.3-2.2-3.4-3.5L111.8,45.9z"/>
	<path class="st0" d="M185.7,46.9v7.8h-11.4v-7.4c0-2.1-0.6-3.6-1.6-4.5c-1.1-1-2.5-1.5-4.3-1.5c-1.3,0-2.5,0.2-3.5,0.5
		c-1.1,0.4-2,0.8-2.9,1.3v11.6h-11.4v-13c0-1.4,0.3-2.5,0.8-3.5c0.5-0.9,1.3-1.7,2.3-2.5c1.6-1.2,3.7-2.2,6.3-3
		c2.6-0.8,5.4-1.2,8.4-1.2c5.5,0,9.8,1.3,12.8,4C184.2,38.1,185.7,41.9,185.7,46.9z M150.5,50.9h11.4v21.9c-0.5,0.2-1.2,0.3-2.1,0.5
		s-1.9,0.2-3,0.2c-2.1,0-3.7-0.4-4.7-1.3s-1.5-2.3-1.5-4.5V50.9z M174.3,50.9h11.4v21.9c-0.5,0.2-1.2,0.3-2.1,0.5s-1.9,0.2-3,0.2
		c-2.1,0-3.7-0.4-4.8-1.3c-1-0.8-1.5-2.3-1.5-4.5V50.9z"/>
	<path class="st0" d="M194.2,21.3c0-1.9,0.6-3.5,1.8-4.8c1.2-1.3,2.7-1.9,4.6-1.9c1.9,0,3.4,0.6,4.6,1.9c1.2,1.3,1.8,2.9,1.8,4.8
		c0,1.8-0.6,3.4-1.8,4.8s-2.7,2-4.6,2c-1.8,0-3.4-0.7-4.6-2S194.2,23.1,194.2,21.3z M206.3,57.2h-11.4V33.3c0.5-0.2,1.2-0.3,2.1-0.5
		c0.9-0.2,2-0.2,3-0.2c2.2,0,3.8,0.4,4.8,1.2c1,0.8,1.5,2.3,1.5,4.6V57.2z M194.9,50.8h11.4v21.9c-0.5,0.2-1.2,0.3-2.1,0.5
		s-1.9,0.2-3,0.2c-2.2,0-3.8-0.4-4.8-1.3c-1-0.8-1.5-2.3-1.5-4.5V50.8z"/>
	<path class="st0" d="M226.9,43.5V54h-11.4V42c0-1.6,0.3-2.9,1-4c0.7-1.1,1.7-2,2.9-2.9c1.7-1.1,3.7-2,6.1-2.6c2.4-0.6,4.9-1,7.5-1
		c5.2,0,7.8,1.9,7.8,5.7c0,0.9-0.1,1.7-0.3,2.5c-0.2,0.8-0.5,1.4-0.8,2c-0.5-0.1-1.1-0.2-1.9-0.3c-0.7-0.1-1.5-0.1-2.4-0.1
		c-1.5,0-3.1,0.2-4.6,0.6C229.2,42.3,227.9,42.9,226.9,43.5z M215.5,50.8l11.4,0.2v21.7c-0.5,0.2-1.2,0.3-2.1,0.5s-1.9,0.2-3,0.2
		c-2.1,0-3.7-0.4-4.7-1.3c-1-0.8-1.5-2.3-1.5-4.5V50.8z"/>
	<path class="st1" d="M258.9,73.3c-1.5-0.5-2.9-1.1-4-1.8V61c0.9,0.8,1.9,1.5,3.2,2.2c1.3,0.7,2.7,1,4.3,1c2.8,0,5-1,6.6-2.9
		c1.6-1.9,2.3-4.9,2.3-8.8c0-2.7-0.3-4.8-1-6.5c-0.7-1.6-1.7-2.8-3-3.6c-1.3-0.8-2.8-1.2-4.5-1.2c-1.2,0-2.2,0.2-3.2,0.5
		c-0.9,0.3-1.8,0.7-2.4,1.1v25.5h-11.3V41.1c0-1.4,0.3-2.5,0.8-3.5c0.5-0.9,1.3-1.7,2.4-2.5c1.5-1.1,3.5-1.9,5.8-2.6
		c2.4-0.7,5-1,7.9-1c3.9,0,7.4,0.7,10.5,2.2c3,1.5,5.4,3.8,7.1,6.8c1.7,3.1,2.5,7.1,2.5,12c0,4.7-0.8,8.7-2.5,11.8
		c-1.6,3.2-3.9,5.6-6.7,7.2c-2.8,1.6-6,2.5-9.6,2.5C262.1,74.1,260.4,73.8,258.9,73.3z M257.2,87.6c-0.5,0.2-1.2,0.3-2.1,0.5
		c-0.9,0.2-1.9,0.2-3,0.2c-2.1,0-3.7-0.4-4.7-1.3c-1-0.8-1.5-2.4-1.5-4.6V65.2h11.4V87.6z"/>
	<path class="st1" d="M319.9,61.1c0,4.1-1.4,7.2-4.2,9.5c-2.8,2.3-6.9,3.5-12.3,3.5c-4.2,0-7.6-0.7-10.4-2c-2.7-1.3-4.1-3.3-4.1-5.9
		c0-1.2,0.2-2.2,0.7-3c0.5-0.9,1-1.5,1.8-2c1.4,0.9,3.1,1.7,5,2.5c1.9,0.8,4.1,1.1,6.6,1.1c3.7,0,5.6-1.2,5.6-3.5c0-1-0.3-1.8-1-2.4
		c-0.7-0.6-1.8-1-3.3-1.3l-3.2-0.8c-4.1-0.9-7.1-2.4-9.2-4.4c-2-2-3-4.7-3-8.1c0-3.9,1.4-7,4.3-9.3c2.9-2.3,6.8-3.5,11.7-3.5
		c2.5,0,4.7,0.3,6.7,0.8c2,0.5,3.6,1.3,4.8,2.4c1.2,1.1,1.8,2.4,1.8,4c0,1.1-0.2,2.1-0.6,2.9c-0.4,0.8-0.9,1.5-1.6,2.1
		c-0.6-0.4-1.4-0.8-2.6-1.3c-1.2-0.4-2.4-0.8-3.8-1.1c-1.4-0.3-2.6-0.4-3.8-0.4c-1.8,0-3.3,0.3-4.3,0.8c-1,0.5-1.5,1.3-1.5,2.5
		c0,0.7,0.3,1.3,0.9,1.9c0.6,0.5,1.6,1,3.1,1.3l3.1,0.8c4.6,1.1,7.8,2.7,9.8,4.8S319.9,57.8,319.9,61.1z"/>
	<path class="st1" d="M332.6,58.6l-0.5-8.3l19-3.3c-0.1-1.6-0.7-3-1.8-4.3c-1.1-1.3-2.8-2-5-2c-2.3,0-4.2,0.8-5.8,2.5
		c-1.5,1.7-2.4,4.1-2.5,7.2l0.4,5.8c0.5,3.1,1.7,5.2,3.6,6.5c1.9,1.3,4.2,2,6.9,2c2.1,0,4.2-0.3,6.1-1c1.9-0.7,3.4-1.4,4.6-2.1
		c0.8,0.5,1.4,1.2,1.9,2.1c0.5,0.9,0.7,1.8,0.7,2.8c0,1.7-0.6,3.1-1.8,4.2c-1.2,1.1-2.9,1.9-5,2.5c-2.1,0.6-4.5,0.8-7.3,0.8
		c-3.9,0-7.5-0.8-10.6-2.4c-3.1-1.6-5.6-4-7.4-7.3c-1.8-3.2-2.7-7.3-2.7-12.1c0-3.6,0.5-6.6,1.6-9.3c1-2.6,2.5-4.8,4.2-6.5
		c1.8-1.7,3.8-3,6-3.8s4.5-1.3,6.9-1.3c3.5,0,6.6,0.8,9.2,2.3c2.6,1.5,4.7,3.6,6.2,6.2c1.5,2.6,2.2,5.6,2.2,9.1c0,1.7-0.4,3-1.3,3.9
		c-0.9,0.9-2.1,1.4-3.6,1.7L332.6,58.6z"/>
</g>
<g>
	<path id="XMLID_838_" class="st2" d="M67.7,49.7c3.2,0,5.8,2.5,5.8,5.6c0,3.1-2.6,5.6-5.8,5.6c-3.2,0-5.8-2.5-5.8-5.6
		C61.9,52.2,64.5,49.7,67.7,49.7 M28.3,23c3.3,0,6,2.6,6,5.8c0,3.2-2.7,5.8-6,5.8s-6-2.6-6-5.8C22.3,25.6,25,23,28.3,23z M68.7,73.2
		c6.8-1.8,4.5-5.2,1-6c-4.8-1-9,1.6-12.2-4.9c-2.6-5.4-2.5-13.7-6.2-13.6c-4,0.2-1.1,13.8-2.1,19C48.5,71.2,47.8,74,47,76
		c-2.1,5.4-5.3,5.9-6.4-0.1c-1.8-9.2,3.3-29.8,7.3-39.4c2.9-7,6.4-13.2,7.2-17.5c0.6-3-1.1-3.9-3.8-2.3
		c-5.5,3.3-10.7,18.2-18.5,23.4c-2.2,1.5-5.4,1.7-9.7,1c-10.1-1.8-12.7,5.4-5.7,6.6c30.2,5.4,10.6,57.3,1.4,42.4
		c-2.2-3.6-4.5-12.1-1.6-32.2c-4.7,4.8-14,5-15.8-1.9C-1.7,44.9,21.4,20.5,35.9,7.9c6.9-6,17.4-6,24.3,0c1.8,1.6,3.8,3.3,5.8,5.3V11
		c0-7.3,13.7-7.3,13.7,0v16.3C90,39.1,98,51.7,93.9,58c-3.4,5.3-11.1,4.2-15,0.1c2.3,16,1.3,24.6-0.3,29.3c-1.1,3.3-2.4,4.8-5.9,5.9
		C58.7,97.5,33.3,83.1,68.7,73.2z"/>
</g>
</svg>
